<?xml version="1.0" standalone="no"?>
<!DOCTYPE svg PUBLIC "-//W3C//DTD SVG 20010904//EN"
 "http://www.w3.org/TR/2001/REC-SVG-20010904/DTD/svg10.dtd">
<svg version="1.0" xmlns="http://www.w3.org/2000/svg"
 width="128.000000pt" height="128.000000pt" viewBox="0 0 128.000000 128.000000"
 preserveAspectRatio="xMidYMid meet">
<metadata>
Created by potrace 1.11, written by Peter Selinger 2001-2013
</metadata>
<g transform="translate(0.000000,128.000000) scale(0.100000,-0.100000)"
fill="#000000" stroke="none">
<path d="M492 1210 c-106 -28 -187 -75 -267 -155 -150 -150 -207 -356 -155
-559 28 -110 74 -190 155 -271 150 -150 356 -207 559 -155 110 28 190 74 271
155 81 81 127 161 155 271 36 141 18 295 -52 427 -42 80 -155 193 -235 235
-131 69 -291 89 -431 52z m287 -15 c194 -46 365 -214 416 -411 19 -75 19 -213
0 -288 -65 -250 -295 -426 -555 -426 -260 0 -490 176 -555 426 -19 75 -19 213
0 288 51 194 221 364 411 410 78 19 204 19 283 1z"/>
<path d="M560 1159 c-80 -11 -159 -43 -225 -90 l-57 -41 20 -21 21 -20 32 27
c49 41 129 80 129 62 0 -8 -24 -28 -52 -44 -68 -38 -142 -112 -180 -179 -25
-45 -48 -67 -48 -48 0 11 33 70 63 114 29 43 29 43 9 63 -19 20 -20 20 -61
-37 -129 -181 -129 -429 0 -610 41 -57 42 -57 61 -37 20 20 20 20 -9 63 -30
44 -63 103 -63 114 0 19 23 -3 48 -47 38 -68 112 -142 180 -180 28 -16 52 -36
52 -44 0 -18 -80 21 -129 62 l-32 27 -21 -20 -20 -21 57 -41 c180 -128 430
-128 610 0 l57 41 -20 21 -21 20 -32 -27 c-49 -41 -129 -80 -129 -62 0 8 24
28 53 44 67 38 141 112 179 179 25 45 48 67 48 48 0 -11 -33 -70 -63 -114 -29
-43 -29 -43 -9 -63 19 -20 20 -20 61 37 129 181 129 429 0 610 -41 57 -42 57
-61 37 -20 -20 -20 -20 9 -63 30 -44 63 -103 63 -114 0 -19 -23 3 -48 48 -38
67 -112 141 -179 179 -29 16 -53 36 -53 44 0 18 80 -21 129 -62 l32 -27 21 20
20 21 -57 41 c-69 49 -143 78 -233 91 -75 11 -75 11 -152 -1z m169 -20 c55
-12 65 -20 57 -47 -6 -17 -20 -18 -146 -18 -129 0 -140 1 -146 19 -8 25 3 34
51 46 56 13 125 13 184 0z m30 -98 c198 -62 314 -231 298 -438 -10 -128 -88
-258 -194 -320 -249 -146 -556 -23 -629 252 -84 312 217 602 525 506z m-562
-253 c4 -7 8 -75 9 -151 1 -109 -2 -140 -14 -149 -38 -32 -73 96 -57 214 10
77 40 119 62 86z m927 -10 c50 -79 18 -335 -36 -290 -12 9 -15 40 -14 149 1
76 5 144 9 151 12 18 25 15 41 -10z m-340 -591 c9 -14 7 -21 -7 -32 -40 -29
-232 -30 -273 -1 -11 8 -14 20 -10 33 6 19 14 20 143 19 120 -1 137 -3 147
-19z"/>
<path d="M523 996 c-60 -19 -104 -49 -157 -106 -74 -79 -91 -125 -91 -250 0
-87 4 -113 22 -153 31 -66 115 -152 182 -184 50 -25 67 -28 161 -28 94 0 111
3 161 28 67 32 151 118 182 184 18 40 22 66 22 153 0 127 -17 171 -96 255 -76
80 -140 109 -253 112 -57 2 -107 -2 -133 -11z m240 -22 c84 -29 168 -108 204
-192 91 -213 -43 -455 -271 -492 -237 -38 -449 174 -407 407 42 222 261 351
474 277z"/>
</g>
</svg>
