<?xml version="1.0" standalone="no"?>
<!DOCTYPE svg PUBLIC "-//W3C//DTD SVG 20010904//EN"
 "http://www.w3.org/TR/2001/REC-SVG-20010904/DTD/svg10.dtd">
<svg version="1.0" xmlns="http://www.w3.org/2000/svg"
 width="128.000000pt" height="128.000000pt" viewBox="0 0 128.000000 128.000000"
 preserveAspectRatio="xMidYMid meet">
<metadata>
Created by potrace 1.11, written by Peter Selinger 2001-2013
</metadata>
<g transform="translate(0.000000,128.000000) scale(0.100000,-0.100000)"
fill="#000000" stroke="none">
<path d="M686 775 c-5 -11 -8 -39 -7 -63 3 -47 -11 -72 -40 -72 -17 0 -19 8
-20 68 -1 64 -1 65 -11 27 -13 -55 -3 -100 25 -112 l22 -10 -23 -7 c-32 -10
-80 11 -96 42 l-13 25 -5 -27 c-4 -20 -1 -29 11 -34 20 -7 31 -22 31 -43 0
-13 -15 -18 -72 -23 -40 -4 -85 -7 -100 -6 -34 0 -45 -17 -22 -36 23 -17 94
-15 101 3 3 9 25 13 64 13 32 0 59 -2 59 -3 0 -2 -8 -19 -17 -38 -12 -24 -17
-59 -17 -116 0 -73 3 -85 24 -108 28 -29 60 -32 83 -7 22 24 21 231 -1 248
-12 8 -2 12 43 18 46 5 62 3 76 -9 28 -26 103 -9 97 23 -3 15 -14 17 -160 23
-55 2 -62 18 -27 55 20 21 21 28 13 106 -7 63 -11 78 -18 63z"/>
</g>
</svg>
