<?xml version="1.0" standalone="no"?>
<!DOCTYPE svg PUBLIC "-//W3C//DTD SVG 20010904//EN"
 "http://www.w3.org/TR/2001/REC-SVG-20010904/DTD/svg10.dtd">
<svg version="1.0" xmlns="http://www.w3.org/2000/svg"
 width="128.000000pt" height="128.000000pt" viewBox="0 0 128.000000 128.000000"
 preserveAspectRatio="xMidYMid meet">
<metadata>
Created by potrace 1.11, written by Peter Selinger 2001-2013
</metadata>
<g transform="translate(0.000000,128.000000) scale(0.100000,-0.100000)"
fill="#000000" stroke="none">
<path d="M450 1221 c-19 -10 -53 -21 -75 -25 -33 -7 -59 -27 -153 -119 -115
-113 -142 -149 -142 -187 0 -11 -9 -37 -20 -57 -18 -33 -20 -57 -20 -193 0
-136 2 -160 20 -193 11 -20 20 -46 20 -57 0 -38 27 -74 142 -187 94 -92 120
-112 153 -119 22 -4 56 -15 75 -25 29 -16 58 -19 190 -19 132 0 161 3 190 19
19 10 53 21 75 25 33 7 59 27 153 119 115 113 142 149 142 187 0 11 9 37 20
57 18 33 20 57 20 193 0 136 -2 160 -20 193 -11 20 -20 46 -20 57 0 38 -27 74
-142 187 -94 92 -120 112 -153 119 -22 4 -56 15 -75 25 -29 16 -58 19 -190 19
-132 0 -161 -3 -190 -19z m391 -30 c14 -17 25 -22 44 -17 38 10 70 -13 176
-121 108 -109 124 -133 114 -171 -5 -20 -1 -30 17 -43 23 -18 23 -21 23 -199
0 -178 0 -181 -23 -199 -18 -13 -22 -23 -17 -43 10 -38 -6 -62 -114 -171 -106
-108 -138 -131 -176 -121 -19 5 -30 0 -44 -17 -19 -23 -25 -24 -184 -27 -136
-3 -171 -1 -196 13 -17 8 -31 20 -31 27 0 6 -11 8 -31 4 -44 -9 -71 10 -180
121 -108 109 -124 133 -114 171 5 20 1 30 -17 43 -23 18 -23 21 -23 199 0 178
0 181 23 199 18 13 22 23 17 43 -10 39 13 73 122 179 111 110 129 121 172 113
20 -4 31 -2 31 4 0 6 12 18 28 27 22 12 60 14 195 12 164 -2 169 -3 188 -26z"/>
<path d="M462 1178 c-16 -16 -15 -50 1 -71 11 -16 31 -17 182 -15 l170 3 9 28
c7 19 7 34 0 45 -10 15 -34 17 -180 20 -123 2 -173 -1 -182 -10z m328 -23 c10
-12 10 -18 0 -30 -10 -12 -40 -15 -150 -15 -110 0 -140 3 -150 15 -10 12 -10
18 0 30 10 12 40 15 150 15 110 0 140 -3 150 -15z"/>
<path d="M242 1037 c-74 -74 -112 -120 -112 -134 0 -23 34 -53 60 -53 20 0
240 220 240 240 0 26 -30 60 -53 60 -15 0 -59 -37 -135 -113z m156 59 c5 -25
-189 -219 -214 -214 -43 8 -26 40 74 140 100 100 132 117 140 74z"/>
<path d="M866 1128 c-9 -12 -16 -29 -16 -37 0 -19 220 -241 240 -241 26 0 60
30 60 53 0 31 -217 247 -247 247 -12 0 -29 -10 -37 -22z m157 -107 c67 -67 98
-105 95 -117 -8 -41 -39 -26 -133 67 -93 90 -113 118 -100 139 15 24 45 4 138
-89z"/>
<path d="M337 945 l-118 -120 0 -185 -1 -185 119 -118 118 -119 185 0 185 0
118 119 119 118 0 185 0 185 -119 118 -118 119 -185 1 -185 2 -118 -120z m595
-13 l108 -108 0 -184 0 -184 -108 -108 -108 -108 -184 0 -184 0 -108 108 -108
108 0 184 0 184 108 108 108 108 184 0 184 0 108 -108z"/>
<path d="M101 816 c-8 -9 -11 -66 -9 -181 3 -145 5 -169 20 -179 11 -7 26 -7
45 0 l28 9 3 170 c2 151 1 171 -15 182 -22 17 -58 16 -72 -1z m57 -28 c19 -19
16 -282 -3 -298 -12 -10 -18 -10 -30 0 -12 10 -15 40 -15 149 0 128 6 161 30
161 3 0 11 -5 18 -12z"/>
<path d="M1107 817 c-16 -11 -17 -31 -15 -182 l3 -170 28 -9 c19 -7 34 -7 45
0 15 10 17 34 20 179 2 115 -1 172 -9 181 -14 17 -50 18 -72 1z m51 -29 c19
-19 16 -282 -3 -298 -12 -10 -18 -10 -30 0 -12 10 -15 40 -15 149 0 128 6 161
30 161 3 0 11 -5 18 -12z"/>
<path d="M152 414 c-12 -8 -22 -25 -22 -36 0 -30 217 -248 246 -248 24 0 54
34 54 60 0 20 -220 240 -240 240 -9 0 -26 -7 -38 -16z m151 -113 c100 -100
117 -132 72 -139 -15 -2 -49 26 -118 96 -90 92 -107 118 -90 135 17 18 44 -1
136 -92z"/>
<path d="M962 317 c-61 -62 -112 -119 -112 -127 0 -26 30 -60 53 -60 31 0 247
217 247 247 0 23 -34 53 -60 53 -8 0 -66 -51 -128 -113z m156 60 c5 -26 -186
-219 -213 -215 -45 7 -28 39 73 140 100 100 132 117 140 75z"/>
<path d="M460 171 c-14 -27 -13 -56 4 -70 9 -8 66 -11 181 -9 145 3 169 5 179
20 7 11 7 26 0 45 l-9 28 -172 3 c-162 2 -173 1 -183 -17z m330 -16 c10 -12
10 -18 0 -30 -18 -22 -282 -22 -300 0 -10 12 -10 18 0 30 18 22 282 22 300 0z"/>
</g>
</svg>
