<?xml version="1.0" standalone="no"?>
<!DOCTYPE svg PUBLIC "-//W3C//DTD SVG 20010904//EN"
 "http://www.w3.org/TR/2001/REC-SVG-20010904/DTD/svg10.dtd">
<svg version="1.0" xmlns="http://www.w3.org/2000/svg"
 width="177.000000pt" height="254.000000pt" viewBox="0 0 177.000000 254.000000"
 preserveAspectRatio="xMidYMid meet">
<metadata>
Created by potrace 1.11, written by Peter Selinger 2001-2013
</metadata>
<g transform="translate(0.000000,254.000000) scale(0.100000,-0.100000)"
fill="#000000" stroke="none">
<path d="M10 1270 l0 -1260 875 0 875 0 0 1260 0 1260 -875 0 -875 0 0 -1260z
m546 -58 c11 -20 135 -235 276 -477 348 -602 397 -689 392 -694 -8 -8 -20 11
-206 334 -102 176 -254 440 -339 587 l-154 268 -242 0 c-155 0 -243 4 -243 10
0 6 89 10 248 10 l247 0 21 -38z"/>
</g>
</svg>
