<?xml version="1.0" standalone="no"?>
<!DOCTYPE svg PUBLIC "-//W3C//DTD SVG 20010904//EN"
 "http://www.w3.org/TR/2001/REC-SVG-20010904/DTD/svg10.dtd">
<svg version="1.0" xmlns="http://www.w3.org/2000/svg"
 width="89.000000pt" height="128.000000pt" viewBox="0 0 89.000000 128.000000"
 preserveAspectRatio="xMidYMid meet">
<metadata>
Created by potrace 1.11, written by Peter Selinger 2001-2013
</metadata>
<g transform="translate(0.000000,128.000000) scale(0.100000,-0.100000)"
fill="#000000" stroke="none">
<path d="M0 640 l0 -640 445 0 445 0 0 640 0 640 -445 0 -445 0 0 -640z m417
338 c8 -13 45 -219 41 -223 -2 -1 -19 -5 -38 -8 l-36 -5 -17 76 c-28 124 -21
172 24 172 10 0 21 -6 26 -12z m233 -14 c11 -13 9 -29 -13 -94 -15 -45 -27
-102 -27 -130 l0 -50 -52 28 c-29 15 -55 28 -56 29 -4 1 40 119 73 201 16 36
52 44 75 16z m-106 -253 c80 -35 107 -119 63 -195 -44 -78 -140 -127 -219
-112 -66 12 -130 69 -144 130 l-7 28 27 -18 c23 -15 33 -16 60 -6 18 7 42 12
53 12 29 0 46 25 41 60 -5 33 -2 35 37 20 25 -9 25 -11 10 -39 -24 -47 -17
-60 9 -16 23 40 23 40 4 58 -11 9 -28 17 -37 17 -26 0 -61 29 -61 50 0 44 79
49 164 11z m271 -516 l0 -120 -370 0 -370 0 -3 109 c-1 61 0 116 2 123 5 11
75 13 373 11 l368 -3 0 -120z"/>
</g>
</svg>
