<?xml version="1.0" standalone="no"?>
<!DOCTYPE svg PUBLIC "-//W3C//DTD SVG 20010904//EN"
 "http://www.w3.org/TR/2001/REC-SVG-20010904/DTD/svg10.dtd">
<svg version="1.0" xmlns="http://www.w3.org/2000/svg"
 width="89.000000pt" height="128.000000pt" viewBox="0 0 89.000000 128.000000"
 preserveAspectRatio="xMidYMid meet">
<metadata>
Created by potrace 1.11, written by Peter Selinger 2001-2013
</metadata>
<g transform="translate(0.000000,128.000000) scale(0.100000,-0.100000)"
fill="#000000" stroke="none">
<path d="M0 640 l0 -640 445 0 445 0 0 640 0 640 -445 0 -445 0 0 -640z m390
251 c-29 -58 -34 -109 -16 -161 19 -56 19 -57 0 -64 -60 -23 -111 134 -69 214
18 35 41 49 78 50 l27 0 -20 -39z m-104 -17 c-17 -66 -16 -84 4 -143 17 -52
19 -66 8 -72 -20 -13 -24 -11 -52 21 -51 61 -55 146 -10 195 32 34 58 34 50
-1z m279 -45 c25 -7 58 -29 88 -59 40 -40 47 -53 47 -87 0 -47 -41 -110 -95
-145 -28 -19 -35 -30 -37 -63 -3 -37 -5 -40 -43 -48 -38 -8 -149 -3 -179 9 -8
3 -20 21 -26 40 -7 19 -27 46 -45 60 -41 31 -65 79 -65 130 l0 38 29 -34 c27
-33 31 -34 59 -24 17 6 41 10 54 7 14 -3 29 2 36 10 7 8 22 13 33 10 19 -5 19
-7 -7 -34 -15 -16 -23 -29 -18 -29 6 0 23 14 40 31 16 17 44 38 62 45 42 18
41 40 -2 48 -68 13 -110 71 -68 95 23 14 87 14 137 0z m250 -634 l0 -120 -370
0 -370 0 -3 109 c-1 61 0 116 2 123 5 11 75 13 373 11 l368 -3 0 -120z"/>
</g>
</svg>
