<?xml version="1.0" standalone="no"?>
<!DOCTYPE svg PUBLIC "-//W3C//DTD SVG 20010904//EN"
 "http://www.w3.org/TR/2001/REC-SVG-20010904/DTD/svg10.dtd">
<svg version="1.0" xmlns="http://www.w3.org/2000/svg"
 width="89.000000pt" height="128.000000pt" viewBox="0 0 89.000000 128.000000"
 preserveAspectRatio="xMidYMid meet">
<metadata>
Created by potrace 1.11, written by Peter Selinger 2001-2013
</metadata>
<g transform="translate(0.000000,128.000000) scale(0.100000,-0.100000)"
fill="#000000" stroke="none">
<path d="M0 640 l0 -640 445 0 445 0 0 640 0 640 -445 0 -445 0 0 -640z m479
218 c-5 -141 8 -148 64 -38 25 50 45 76 57 78 30 5 26 -27 -15 -121 -19 -44
-35 -86 -35 -93 0 -7 -14 -15 -30 -19 -45 -10 -87 -57 -99 -112 -6 -30 -6 -52
0 -57 5 -6 9 2 9 22 0 67 36 118 96 136 16 5 23 0 32 -19 14 -31 38 -32 96 -4
48 24 76 20 76 -10 0 -13 -20 -31 -63 -56 -43 -25 -70 -49 -85 -77 -43 -74
-147 -99 -232 -55 -47 24 -74 64 -85 128 l-7 37 53 11 c53 12 149 58 149 72 0
4 -30 -8 -66 -27 -42 -22 -79 -34 -102 -33 -37 0 -38 1 -80 90 -40 84 -47 119
-23 119 12 0 52 -53 75 -97 9 -18 23 -33 31 -33 19 0 20 84 4 161 -9 43 -9 54
5 67 24 24 36 5 55 -90 14 -70 20 -83 36 -83 18 0 21 10 26 97 7 107 11 118
41 118 20 0 20 -4 17 -112z m336 -663 l0 -120 -370 0 -370 0 -3 109 c-1 61 0
116 2 123 5 11 75 13 373 11 l368 -3 0 -120z"/>
</g>
</svg>
