<?xml version="1.0" standalone="no"?>
<!DOCTYPE svg PUBLIC "-//W3C//DTD SVG 20010904//EN"
 "http://www.w3.org/TR/2001/REC-SVG-20010904/DTD/svg10.dtd">
<svg version="1.0" xmlns="http://www.w3.org/2000/svg"
 width="320.000000pt" height="256.000000pt" viewBox="0 0 320.000000 256.000000"
 preserveAspectRatio="xMidYMid meet">
<metadata>
Created by potrace 1.11, written by Peter Selinger 2001-2013
</metadata>
<g transform="translate(0.000000,256.000000) scale(0.100000,-0.100000)"
fill="#000000" stroke="none">
<path d="M0 1280 l0 -1280 1600 0 1600 0 0 1280 0 1280 -1600 0 -1600 0 0
-1280z m1031 1239 c89 -30 132 -129 98 -228 l-11 -31 -75 0 c-74 0 -75 0 -68
23 5 12 8 45 9 72 1 49 0 50 -29 50 -29 0 -30 -2 -35 -50 l-5 -50 -70 0 c-70
0 -70 0 -73 29 -9 75 47 166 114 186 42 12 106 12 145 -1z m687 -16 c47 -35
66 -70 66 -122 0 -29 -7 -59 -17 -75 -16 -24 -22 -26 -97 -26 -44 0 -80 4 -80
10 0 5 11 20 25 34 27 27 32 55 13 74 -23 23 -47 14 -56 -20 l-9 -33 -63 3
c-35 1 -68 6 -72 10 -11 11 9 75 34 107 35 45 93 67 167 61 41 -2 72 -11 89
-23z m1327 17 c4 -6 3 -35 0 -65 l-7 -55 -94 0 c-91 0 -94 -1 -94 -23 0 -20 4
-22 44 -19 49 4 116 -21 116 -44 0 -11 -29 -14 -150 -14 -113 0 -150 3 -150
13 0 22 21 192 25 205 5 15 300 18 310 2z m-2610 -85 l0 -80 -101 -7 c-55 -3
-109 -8 -120 -10 -16 -3 -19 4 -22 49 -3 50 -2 53 25 58 53 12 82 27 98 52 14
21 22 24 68 21 l52 -3 0 -80z m1955 -60 l0 -146 -72 3 -73 3 -6 45 c-4 33 -7
40 -13 28 -6 -14 -20 -18 -63 -18 -70 0 -69 4 22 134 l68 96 69 0 68 0 0 -145z
m-1955 -220 l0 -170 -72 -3 -73 -3 0 176 0 176 73 -3 72 -3 0 -170z m2623 108
c13 -32 6 -147 -10 -178 -64 -121 -242 -141 -330 -37 -28 34 -46 108 -31 123
6 6 39 9 74 7 60 -3 64 -5 67 -28 2 -14 9 -31 14 -37 16 -20 56 -15 68 6 13
26 13 87 -1 112 -20 39 -5 49 71 49 58 0 72 -3 78 -17z m-868 -7 c0 -8 -6 -18
-12 -23 -7 -4 52 -10 132 -13 l145 -5 3 -57 3 -58 -36 0 -35 0 0 -60 0 -61
-72 3 -73 3 -3 58 -3 57 -99 0 -100 0 0 56 c0 82 27 113 98 113 39 1 52 -3 52
-13z m-416 -29 c28 -38 27 -122 -3 -171 -43 -69 -145 -102 -237 -77 -58 16
-110 75 -119 135 -11 72 -6 77 72 74 67 -3 68 -3 71 -33 2 -16 8 -36 14 -42
16 -20 56 -15 68 6 23 45 1 91 -45 91 -27 0 -39 14 -31 36 5 12 23 14 97 12
87 -3 93 -4 113 -31z m-684 -5 c0 -10 -23 -40 -50 -67 l-51 -50 73 -5 73 -5 3
-57 3 -58 -186 0 -185 0 0 54 0 55 73 59 c40 33 79 67 86 76 10 12 32 16 87
16 64 0 74 -2 74 -18z m-674 -357 c43 -28 87 -116 68 -135 -5 -4 -38 -10 -73
-12 -62 -3 -65 -2 -71 22 -4 16 -14 26 -28 28 -18 3 -26 -4 -37 -32 -24 -56
-21 -68 13 -50 51 27 152 6 152 -31 0 -12 -26 -15 -160 -14 l-160 0 0 28 c0
47 30 130 58 162 15 16 45 36 67 45 49 17 136 12 171 -11z m1274 3 c73 -38
100 -119 64 -194 l-16 -34 -133 0 c-153 0 -165 6 -172 87 -11 126 132 204 257
141z m612 12 c43 -12 100 -72 119 -126 21 -58 18 -227 -4 -290 -27 -78 -99
-134 -173 -134 -23 0 -24 4 -24 60 0 53 2 60 19 60 26 0 51 37 51 73 0 22 -3
27 -12 19 -7 -5 -23 -13 -35 -16 -22 -7 -23 -5 -23 49 0 49 3 57 24 64 27 11
36 29 36 75 0 36 -15 56 -42 56 -15 0 -18 9 -18 60 0 56 2 60 23 60 12 0 38
-5 59 -10z m779 -13 c44 -30 78 -111 79 -189 l0 -58 -54 0 -53 0 -6 57 c-13
124 -77 105 -77 -23 l0 -34 -61 0 -61 0 7 58 c20 168 126 257 226 189z m-1921
-43 c0 -50 -5 -62 -46 -120 l-46 -64 -64 0 c-75 0 -78 7 -34 68 l30 42 -110 0
-110 0 0 65 0 65 190 0 190 0 0 -56z m1037 -117 c2 -187 -3 -200 -56 -173 -16
9 -43 33 -58 53 -25 32 -28 45 -28 107 0 53 5 79 20 104 20 34 91 85 110 79 6
-2 11 -69 12 -170z m611 77 l3 -81 -83 -6 c-46 -2 -90 -6 -98 -8 -12 -3 -16 8
-18 48 -3 51 -3 51 33 63 20 6 46 25 58 41 18 26 27 30 62 27 l40 -3 3 -81z
m0 -281 l2 -173 -60 0 -60 0 0 175 0 176 58 -3 57 -3 3 -172z m-2314 100 c34
-122 -14 -228 -119 -263 -55 -18 -128 -8 -170 24 -51 39 -77 97 -83 184 l-5
72 186 0 c168 0 186 -2 191 -17z m551 7 c4 -6 -3 -36 -15 -68 -12 -31 -28 -88
-34 -127 l-12 -70 -74 -3 c-40 -2 -77 1 -81 5 -10 10 21 124 57 211 l26 62 64
0 c34 0 66 -5 69 -10z m704 -11 c29 -27 41 -60 41 -112 0 -93 -75 -151 -195
-152 -85 0 -135 26 -165 86 -33 64 -25 124 23 177 19 21 29 22 147 22 114 0
128 -2 149 -21z m1222 -59 c8 -66 17 -90 34 -90 22 0 35 26 43 86 l7 59 50 0
50 0 3 -43 c15 -205 -194 -305 -273 -129 -25 55 -41 149 -30 167 4 6 29 10 58
8 l52 -3 6 -55z m-773 -113 c3 -89 -7 -101 -60 -70 -34 19 -81 96 -76 123 2
10 20 17 48 21 86 12 85 13 88 -74z m-391 -187 c48 -29 67 -65 67 -124 -1 -28
-6 -63 -12 -78 -11 -27 -15 -28 -76 -28 -71 0 -88 11 -57 38 28 23 36 65 17
81 -22 18 -46 6 -46 -23 0 -34 -12 -39 -70 -31 -48 7 -50 8 -50 38 0 46 39
109 80 129 46 23 107 23 147 -2z m-652 -14 c42 -28 68 -98 62 -167 -3 -32 -8
-62 -12 -68 -3 -6 -33 -11 -67 -11 -58 0 -60 1 -53 23 17 50 17 103 1 116 -27
23 -45 6 -48 -46 l-3 -48 -57 -3 -58 -3 0 58 c0 109 67 178 162 170 26 -2 59
-12 73 -21z m365 -60 l0 -83 -82 -6 c-46 -2 -90 -6 -98 -8 -12 -3 -16 8 -18
49 -3 51 -3 52 28 59 19 3 42 19 58 39 23 29 33 34 70 34 l42 0 0 -84z m1620
35 c0 -79 -2 -81 -86 -81 -71 0 -74 -1 -74 -23 0 -20 4 -23 34 -19 38 4 96
-21 96 -43 0 -12 -21 -15 -121 -15 l-122 0 7 107 c4 58 9 110 12 115 3 4 61 8
130 8 l124 0 0 -49z m-2850 -45 l0 -83 -92 -6 c-51 -3 -100 -7 -108 -9 -12 -2
-16 9 -18 49 l-3 52 40 11 c23 6 49 23 63 40 19 24 30 29 71 29 l47 1 0 -84z
m265 -1 l0 -80 -90 -8 c-49 -4 -99 -8 -110 -10 -17 -2 -20 5 -23 49 l-3 51 45
12 c31 8 53 21 68 42 20 27 27 30 68 27 l45 -3 0 -80z m315 1 l0 -83 -82 -6
c-46 -3 -91 -9 -100 -12 -16 -6 -18 0 -18 49 0 55 1 57 31 63 18 3 41 20 57
39 23 29 33 34 70 34 l42 0 0 -84z m1285 -1 l0 -80 -81 -7 c-45 -3 -90 -8
-100 -10 -16 -3 -19 4 -22 49 l-3 52 40 11 c25 7 48 22 62 41 18 26 26 30 63
27 l41 -3 0 -80z m345 -60 l0 -145 -60 0 -60 0 0 48 c-1 41 -2 45 -14 30 -14
-19 -90 -26 -100 -9 -4 5 22 57 56 115 l63 105 58 1 57 0 0 -145z m295 60 l0
-80 -80 -7 c-44 -3 -87 -8 -95 -10 -12 -2 -16 9 -18 49 -3 51 -3 51 33 63 20
6 46 25 58 41 18 26 27 30 62 27 l40 -3 0 -80z m-1275 -270 l0 -175 -60 0 -60
0 0 175 0 175 60 0 60 0 0 -175z m-1230 -10 l0 -175 -65 0 -65 0 0 175 0 175
65 0 65 0 0 -175z m265 0 l0 -170 -65 0 -65 0 -3 160 c-1 87 0 165 3 173 3 9
22 12 67 10 l63 -3 0 -170z m313 -2 l2 -173 -60 0 -60 0 0 175 0 176 58 -3 57
-3 3 -172z m1287 2 l0 -170 -60 0 -60 0 -3 160 c-1 87 0 165 3 173 3 9 21 12
62 10 l58 -3 0 -170z m640 0 l0 -170 -57 -3 -58 -3 0 176 0 176 58 -3 57 -3 0
-170z m358 73 c12 -62 -7 -149 -41 -189 -92 -110 -258 -52 -265 93 l-2 43 55
0 c53 0 55 -1 60 -29 6 -33 30 -52 53 -43 22 8 32 71 18 118 -7 22 -9 44 -6
50 4 5 32 9 63 7 l57 -3 8 -47z m-1284 8 c20 -42 16 -126 -7 -172 -28 -55 -89
-88 -152 -82 -89 9 -140 70 -140 168 l0 51 58 -3 c56 -3 57 -3 62 -37 10 -67
70 -64 70 3 0 36 -15 56 -41 56 -22 0 -33 16 -25 36 5 12 22 14 83 12 75 -3
78 -4 92 -32z m457 9 l-6 -25 120 0 120 0 0 -60 0 -60 -30 0 -30 0 0 -60 0
-60 -60 0 -60 0 0 60 0 59 -87 3 -88 3 -3 49 c-2 37 2 56 20 82 20 30 28 34
67 34 41 0 43 -1 37 -25z m-1148 -25 c1 -8 -16 -38 -37 -67 l-40 -52 57 -3 57
-3 3 -57 3 -58 -151 0 -150 0 0 57 0 57 73 73 72 73 55 -2 c39 -2 56 -7 58
-18z m611 -328 c70 -35 99 -120 68 -195 l-16 -37 -115 0 -114 0 -17 45 c-50
129 74 249 194 187z m-1260 -19 c29 -22 69 -119 55 -132 -5 -5 -33 -11 -61
-14 -39 -5 -53 -3 -53 7 0 6 -7 21 -15 32 -15 19 -15 19 -35 -5 -26 -30 -28
-76 -2 -66 52 23 132 5 132 -30 0 -13 -23 -15 -136 -15 l-137 0 7 53 c10 76
53 158 96 180 43 22 111 18 149 -10z m1904 -2 c16 -9 39 -39 54 -69 50 -101
39 -323 -19 -404 -22 -31 -72 -58 -108 -58 -18 0 -20 6 -20 60 0 46 3 60 14
60 21 0 46 40 46 73 0 27 -1 28 -22 13 -34 -24 -38 -20 -38 39 0 44 4 57 18
62 24 9 32 23 32 61 0 40 -15 72 -35 72 -11 0 -15 13 -15 53 0 30 3 57 6 60 9
9 53 -2 87 -22z m656 14 c38 -19 69 -94 77 -185 l7 -71 -49 3 -49 3 -5 57 c-9
104 -51 104 -60 0 l-5 -57 -49 -3 -49 -3 7 62 c19 164 87 240 175 194z m-2214
-80 l0 -80 -80 -7 c-44 -3 -87 -8 -95 -10 -12 -2 -16 9 -18 49 -3 51 -3 51 33
63 20 6 46 25 58 41 18 26 27 30 62 27 l40 -3 0 -80z m353 29 c2 -43 -2 -59
-33 -109 -19 -32 -35 -62 -35 -67 0 -4 -25 -8 -55 -8 -63 0 -69 12 -35 68 11
18 20 35 20 37 0 3 -38 5 -85 5 l-85 0 0 65 0 66 153 -3 152 -3 3 -51z m292
-28 l0 -83 -82 -6 c-46 -2 -90 -6 -98 -8 -12 -3 -16 8 -18 49 -3 51 -2 52 28
58 17 4 42 21 58 40 22 27 34 33 70 33 l42 1 0 -84z m1304 55 c39 -37 56 -127
40 -210 -6 -30 -9 -31 -55 -31 l-48 0 6 70 c5 59 3 70 -11 76 -23 9 -29 0 -36
-54 l-5 -47 -45 0 c-45 0 -45 0 -48 37 -5 57 16 118 54 156 32 32 38 34 80 29
27 -3 54 -13 68 -26z m-2589 -66 l0 -80 -80 -7 c-44 -3 -87 -8 -95 -10 -12 -2
-16 9 -18 50 -3 51 -3 52 28 59 19 3 42 19 58 40 24 30 32 33 67 31 l40 -3 0
-80z m1920 0 l0 -80 -65 -6 c-36 -3 -80 -9 -97 -13 l-33 -8 0 55 0 54 40 12
c28 8 45 21 55 42 15 27 20 30 58 27 l42 -3 0 -80z m165 -84 c0 -113 -4 -172
-11 -177 -15 -9 -60 26 -82 64 -44 74 -26 206 34 257 57 47 59 43 59 -144z
m-1445 -186 l0 -170 -57 -3 -58 -3 0 176 0 176 58 -3 57 -3 0 -170z m645 0 l0
-175 -60 0 -60 0 0 175 0 175 60 0 60 0 0 -175z m-1285 -10 l0 -170 -57 -3
-58 -3 0 176 0 176 58 -3 57 -3 0 -170z m1920 0 l0 -170 -57 -3 -58 -3 0 176
0 176 58 -3 57 -3 0 -170z m-295 93 c15 -24 20 -51 20 -100 0 -57 -4 -71 -25
-97 -75 -88 -222 -75 -270 25 -25 53 -17 145 15 179 22 24 29 25 132 25 l108
0 20 -32z m-1270 3 c5 -11 10 -46 10 -77 0 -109 -58 -183 -149 -191 -93 -8
-159 77 -169 219 l-5 68 151 0 c139 0 152 -2 162 -19z m545 10 c3 -6 -4 -37
-15 -70 -11 -33 -23 -91 -28 -128 l-7 -68 -59 -3 c-32 -2 -63 1 -67 5 -9 9 29
176 54 236 15 36 18 37 66 37 27 0 52 -4 56 -9z m1875 -78 c6 -72 23 -99 46
-69 8 11 14 40 14 65 0 62 9 73 56 69 l39 -3 -1 -55 c-2 -81 -21 -139 -59
-177 -39 -39 -79 -43 -119 -12 -37 29 -54 66 -67 147 -15 93 -11 104 43 100
l43 -3 5 -62z m-178 29 c-1 -13 -16 -43 -32 -68 l-31 -44 51 0 50 0 0 -60 0
-60 -125 0 -125 0 0 53 c0 51 3 58 62 131 l63 77 45 -3 c40 -3 45 -5 42 -26z"/>
</g>
</svg>
